<svg width="48" height="48" viewBox="0 0 48 48" fill="none" xmlns="http://www.w3.org/2000/svg">
<rect x="0.5" y="0.5" width="47" height="47" rx="23.5" fill="#1C1C1C"/>
<rect x="0.5" y="0.5" width="47" height="47" rx="23.5" fill="url(#paint0_linear_3761_27258)" fill-opacity="0.2"/>
<rect x="0.5" y="0.5" width="47" height="47" rx="23.5" stroke="url(#paint1_linear_3761_27258)"/>
<path d="M32.9098 23.1198V18.7298C32.9098 17.9098 32.2898 16.9798 31.5198 16.6698L25.9498 14.3898C24.6998 13.8798 23.2898 13.8798 22.0398 14.3898L16.4698 16.6698C15.7098 16.9798 15.0898 17.9098 15.0898 18.7298V23.1198C15.0898 28.0098 18.6398 32.5898 23.4898 33.9298C23.8198 34.0198 24.1798 34.0198 24.5098 33.9298C29.3598 32.5898 32.9098 28.0098 32.9098 23.1198ZM24.7498 24.8698V27.4998C24.7498 27.9098 24.4098 28.2498 23.9998 28.2498C23.5898 28.2498 23.2498 27.9098 23.2498 27.4998V24.8698C22.2398 24.5498 21.4998 23.6098 21.4998 22.4998C21.4998 21.1198 22.6198 19.9998 23.9998 19.9998C25.3798 19.9998 26.4998 21.1198 26.4998 22.4998C26.4998 23.6198 25.7598 24.5498 24.7498 24.8698Z" fill="white"/>
<defs>
<linearGradient id="paint0_linear_3761_27258" x1="10.6667" y1="5.02326" x2="42.0117" y2="37.6495" gradientUnits="userSpaceOnUse">
<stop stop-color="white"/>
<stop offset="0.784" stop-color="#1C1C1C" stop-opacity="0"/>
</linearGradient>
<linearGradient id="paint1_linear_3761_27258" x1="24" y1="0" x2="24" y2="48" gradientUnits="userSpaceOnUse">
<stop stop-color="white" stop-opacity="0.5"/>
<stop offset="1" stop-color="white" stop-opacity="0"/>
</linearGradient>
</defs>
</svg>
