<svg width="48" height="48" viewBox="0 0 48 48" fill="none" xmlns="http://www.w3.org/2000/svg">
<rect x="0.5" y="0.5" width="47" height="47" rx="23.5" fill="#1C1C1C"/>
<rect x="0.5" y="0.5" width="47" height="47" rx="23.5" fill="url(#paint0_linear_3761_27264)" fill-opacity="0.2"/>
<rect x="0.5" y="0.5" width="47" height="47" rx="23.5" stroke="url(#paint1_linear_3761_27264)"/>
<path d="M34.9999 27.2202C34.5899 27.2202 34.2499 27.5602 34.2499 27.9702C34.2499 30.9302 32.1899 33.4102 29.4199 34.0602L29.6899 33.6102C29.8999 33.2502 29.7899 32.7902 29.4299 32.5802C29.0799 32.3702 28.6099 32.4802 28.3999 32.8402L27.3499 34.5902C27.2099 34.8202 27.2099 35.1102 27.3399 35.3402C27.4699 35.5802 27.7199 35.7202 27.9899 35.7202C32.2599 35.7202 35.7399 32.2402 35.7399 27.9702C35.7499 27.5602 35.4099 27.2202 34.9999 27.2202Z" fill="white"/>
<path d="M20 12.2202C15.73 12.2202 12.25 15.7002 12.25 19.9702C12.25 20.3802 12.59 20.7202 13 20.7202C13.41 20.7202 13.75 20.3802 13.75 19.9702C13.75 17.0102 15.81 14.5302 18.58 13.8802L18.31 14.3302C18.1 14.6902 18.21 15.1502 18.57 15.3602C18.92 15.5702 19.39 15.4602 19.6 15.1002L20.65 13.3502C20.78 13.1202 20.79 12.8402 20.65 12.6002C20.52 12.3702 20.27 12.2202 20 12.2202Z" fill="#F5F5F5"/>
<path d="M33.5002 20.67C33.5002 23.75 31.2602 26.29 28.3302 26.76C28.3302 26.75 28.3302 26.75 28.3302 26.74C28.0402 23.01 25.0202 19.97 21.2402 19.67C21.7102 16.74 24.2502 14.5 27.3302 14.5C30.7402 14.5 33.5002 17.26 33.5002 20.67Z" fill="#F5F5F5"/>
<path d="M21.8101 26.1998C21.8101 26.0498 21.6401 25.8198 21.4301 25.8198H19.3701V26.5698H21.4301C21.6401 26.5798 21.8101 26.4098 21.8101 26.1998Z" fill="#F5F5F5"/>
<path d="M21.8301 28.0801H21.4301H19.3701V28.8301H21.8401C22.1601 28.8301 22.3801 28.6301 22.3801 28.4501C22.3801 28.2701 22.1501 28.0801 21.8301 28.0801Z" fill="#F5F5F5"/>
<path d="M26.83 26.8499C26.6 23.8199 24.18 21.3999 21.15 21.1699C20.99 21.1599 20.84 21.1499 20.67 21.1499C17.26 21.1499 14.5 23.9099 14.5 27.3299C14.5 30.7399 17.26 33.4999 20.67 33.4999C24.08 33.4999 26.85 30.7399 26.85 27.3299C26.85 27.1599 26.84 27.0099 26.83 26.8499ZM21.83 30.3299H21.17V30.7099C21.17 31.1199 20.83 31.4599 20.42 31.4599C20.01 31.4599 19.67 31.1199 19.67 30.7099V30.3299H18.62C18.21 30.3299 17.87 29.9899 17.87 29.5799V27.3299V25.0799C17.87 24.6699 18.21 24.3299 18.62 24.3299H19.67V23.9499C19.67 23.5399 20.01 23.1999 20.42 23.1999C20.83 23.1999 21.17 23.5399 21.17 23.9499V24.3299H21.43C22.43 24.3299 23.31 25.2099 23.31 26.2099C23.31 26.4999 23.24 26.7699 23.12 27.0199C23.58 27.3599 23.87 27.8799 23.87 28.4599C23.87 29.4899 22.96 30.3299 21.83 30.3299Z" fill="#F5F5F5"/>
<defs>
<linearGradient id="paint0_linear_3761_27264" x1="10.6667" y1="5.02326" x2="42.0117" y2="37.6495" gradientUnits="userSpaceOnUse">
<stop stop-color="white"/>
<stop offset="0.784" stop-color="#1C1C1C" stop-opacity="0"/>
</linearGradient>
<linearGradient id="paint1_linear_3761_27264" x1="24" y1="0" x2="24" y2="48" gradientUnits="userSpaceOnUse">
<stop stop-color="white" stop-opacity="0.5"/>
<stop offset="1" stop-color="white" stop-opacity="0"/>
</linearGradient>
</defs>
</svg>
