<svg width="104" height="104" viewBox="0 0 104 104" fill="none" xmlns="http://www.w3.org/2000/svg">
<path d="M3.58621 0H0V3.58621H3.58621V0Z" fill="#F5F5F5"/>
<path d="M7.17241 0H3.58621V3.58621H7.17241V0Z" fill="#F5F5F5"/>
<path d="M10.7586 0H7.17241V3.58621H10.7586V0Z" fill="#F5F5F5"/>
<path d="M14.3448 0H10.7586V3.58621H14.3448V0Z" fill="#F5F5F5"/>
<path d="M17.931 0H14.3448V3.58621H17.931V0Z" fill="#F5F5F5"/>
<path d="M21.5172 0H17.931V3.58621H21.5172V0Z" fill="#F5F5F5"/>
<path d="M25.1034 0H21.5172V3.58621H25.1034V0Z" fill="#F5F5F5"/>
<path d="M32.2759 0H28.6897V3.58621H32.2759V0Z" fill="#F5F5F5"/>
<path d="M35.8621 0H32.2759V3.58621H35.8621V0Z" fill="#F5F5F5"/>
<path d="M57.3793 0H53.7931V3.58621H57.3793V0Z" fill="#F5F5F5"/>
<path d="M64.5517 0H60.9655V3.58621H64.5517V0Z" fill="#F5F5F5"/>
<path d="M68.1379 0H64.5517V3.58621H68.1379V0Z" fill="#F5F5F5"/>
<path d="M71.7241 0H68.1379V3.58621H71.7241V0Z" fill="#F5F5F5"/>
<path d="M75.3103 0H71.7241V3.58621H75.3103V0Z" fill="#F5F5F5"/>
<path d="M82.4828 0H78.8966V3.58621H82.4828V0Z" fill="#F5F5F5"/>
<path d="M86.069 0H82.4828V3.58621H86.069V0Z" fill="#F5F5F5"/>
<path d="M89.6552 0H86.069V3.58621H89.6552V0Z" fill="#F5F5F5"/>
<path d="M93.2414 0H89.6552V3.58621H93.2414V0Z" fill="#F5F5F5"/>
<path d="M96.8276 0H93.2414V3.58621H96.8276V0Z" fill="#F5F5F5"/>
<path d="M100.414 0H96.8276V3.58621H100.414V0Z" fill="#F5F5F5"/>
<path d="M104 0H100.414V3.58621H104V0Z" fill="#F5F5F5"/>
<path d="M3.58621 3.58621H0V7.17241H3.58621V3.58621Z" fill="#F5F5F5"/>
<path d="M25.1034 3.58621H21.5172V7.17241H25.1034V3.58621Z" fill="#F5F5F5"/>
<path d="M35.8621 3.58621H32.2759V7.17241H35.8621V3.58621Z" fill="#F5F5F5"/>
<path d="M39.4483 3.58621H35.8621V7.17241H39.4483V3.58621Z" fill="#F5F5F5"/>
<path d="M46.6207 3.58621H43.0345V7.17241H46.6207V3.58621Z" fill="#F5F5F5"/>
<path d="M64.5517 3.58621H60.9655V7.17241H64.5517V3.58621Z" fill="#F5F5F5"/>
<path d="M68.1379 3.58621H64.5517V7.17241H68.1379V3.58621Z" fill="#F5F5F5"/>
<path d="M82.4828 3.58621H78.8966V7.17241H82.4828V3.58621Z" fill="#F5F5F5"/>
<path d="M104 3.58621H100.414V7.17241H104V3.58621Z" fill="#F5F5F5"/>
<path d="M3.58621 7.17241H0V10.7586H3.58621V7.17241Z" fill="#F5F5F5"/>
<path d="M10.7586 7.17241H7.17241V10.7586H10.7586V7.17241Z" fill="#F5F5F5"/>
<path d="M14.3448 7.17241H10.7586V10.7586H14.3448V7.17241Z" fill="#F5F5F5"/>
<path d="M17.931 7.17241H14.3448V10.7586H17.931V7.17241Z" fill="#F5F5F5"/>
<path d="M25.1034 7.17241H21.5172V10.7586H25.1034V7.17241Z" fill="#F5F5F5"/>
<path d="M35.8621 7.17241H32.2759V10.7586H35.8621V7.17241Z" fill="#F5F5F5"/>
<path d="M50.2069 7.17241H46.6207V10.7586H50.2069V7.17241Z" fill="#F5F5F5"/>
<path d="M57.3793 7.17241H53.7931V10.7586H57.3793V7.17241Z" fill="#F5F5F5"/>
<path d="M64.5517 7.17241H60.9655V10.7586H64.5517V7.17241Z" fill="#F5F5F5"/>
<path d="M68.1379 7.17241H64.5517V10.7586H68.1379V7.17241Z" fill="#F5F5F5"/>
<path d="M82.4828 7.17241H78.8966V10.7586H82.4828V7.17241Z" fill="#F5F5F5"/>
<path d="M89.6552 7.17241H86.069V10.7586H89.6552V7.17241Z" fill="#F5F5F5"/>
<path d="M93.2414 7.17241H89.6552V10.7586H93.2414V7.17241Z" fill="#F5F5F5"/>
<path d="M96.8276 7.17241H93.2414V10.7586H96.8276V7.17241Z" fill="#F5F5F5"/>
<path d="M104 7.17241H100.414V10.7586H104V7.17241Z" fill="#F5F5F5"/>
<path d="M3.58621 10.7586H0V14.3448H3.58621V10.7586Z" fill="#F5F5F5"/>
<path d="M10.7586 10.7586H7.17241V14.3448H10.7586V10.7586Z" fill="#F5F5F5"/>
<path d="M14.3448 10.7586H10.7586V14.3448H14.3448V10.7586Z" fill="#F5F5F5"/>
<path d="M17.931 10.7586H14.3448V14.3448H17.931V10.7586Z" fill="#F5F5F5"/>
<path d="M25.1034 10.7586H21.5172V14.3448H25.1034V10.7586Z" fill="#F5F5F5"/>
<path d="M35.8621 10.7586H32.2759V14.3448H35.8621V10.7586Z" fill="#F5F5F5"/>
<path d="M43.0345 10.7586H39.4483V14.3448H43.0345V10.7586Z" fill="#F5F5F5"/>
<path d="M50.2069 10.7586H46.6207V14.3448H50.2069V10.7586Z" fill="#F5F5F5"/>
<path d="M57.3793 10.7586H53.7931V14.3448H57.3793V10.7586Z" fill="#F5F5F5"/>
<path d="M60.9655 10.7586H57.3793V14.3448H60.9655V10.7586Z" fill="#F5F5F5"/>
<path d="M71.7241 10.7586H68.1379V14.3448H71.7241V10.7586Z" fill="#F5F5F5"/>
<path d="M82.4828 10.7586H78.8966V14.3448H82.4828V10.7586Z" fill="#F5F5F5"/>
<path d="M89.6552 10.7586H86.069V14.3448H89.6552V10.7586Z" fill="#F5F5F5"/>
<path d="M93.2414 10.7586H89.6552V14.3448H93.2414V10.7586Z" fill="#F5F5F5"/>
<path d="M96.8276 10.7586H93.2414V14.3448H96.8276V10.7586Z" fill="#F5F5F5"/>
<path d="M104 10.7586H100.414V14.3448H104V10.7586Z" fill="#F5F5F5"/>
<path d="M3.58621 14.3448H0V17.931H3.58621V14.3448Z" fill="#F5F5F5"/>
<path d="M10.7586 14.3448H7.17241V17.931H10.7586V14.3448Z" fill="#F5F5F5"/>
<path d="M14.3448 14.3448H10.7586V17.931H14.3448V14.3448Z" fill="#F5F5F5"/>
<path d="M17.931 14.3448H14.3448V17.931H17.931V14.3448Z" fill="#F5F5F5"/>
<path d="M25.1034 14.3448H21.5172V17.931H25.1034V14.3448Z" fill="#F5F5F5"/>
<path d="M35.8621 14.3448H32.2759V17.931H35.8621V14.3448Z" fill="#F5F5F5"/>
<path d="M39.4483 14.3448H35.8621V17.931H39.4483V14.3448Z" fill="#F5F5F5"/>
<path d="M43.0345 14.3448H39.4483V17.931H43.0345V14.3448Z" fill="#F5F5F5"/>
<path d="M50.2069 14.3448H46.6207V17.931H50.2069V14.3448Z" fill="#F5F5F5"/>
<path d="M57.3793 14.3448H53.7931V17.931H57.3793V14.3448Z" fill="#F5F5F5"/>
<path d="M64.5517 14.3448H60.9655V17.931H64.5517V14.3448Z" fill="#F5F5F5"/>
<path d="M71.7241 14.3448H68.1379V17.931H71.7241V14.3448Z" fill="#F5F5F5"/>
<path d="M82.4828 14.3448H78.8966V17.931H82.4828V14.3448Z" fill="#F5F5F5"/>
<path d="M89.6552 14.3448H86.069V17.931H89.6552V14.3448Z" fill="#F5F5F5"/>
<path d="M93.2414 14.3448H89.6552V17.931H93.2414V14.3448Z" fill="#F5F5F5"/>
<path d="M96.8276 14.3448H93.2414V17.931H96.8276V14.3448Z" fill="#F5F5F5"/>
<path d="M104 14.3448H100.414V17.931H104V14.3448Z" fill="#F5F5F5"/>
<path d="M3.58621 17.931H0V21.5172H3.58621V17.931Z" fill="#F5F5F5"/>
<path d="M25.1034 17.931H21.5172V21.5172H25.1034V17.931Z" fill="#F5F5F5"/>
<path d="M39.4483 17.931H35.8621V21.5172H39.4483V17.931Z" fill="#F5F5F5"/>
<path d="M46.6207 17.931H43.0345V21.5172H46.6207V17.931Z" fill="#F5F5F5"/>
<path d="M53.7931 17.931H50.2069V21.5172H53.7931V17.931Z" fill="#F5F5F5"/>
<path d="M57.3793 17.931H53.7931V21.5172H57.3793V17.931Z" fill="#F5F5F5"/>
<path d="M71.7241 17.931H68.1379V21.5172H71.7241V17.931Z" fill="#F5F5F5"/>
<path d="M82.4828 17.931H78.8966V21.5172H82.4828V17.931Z" fill="#F5F5F5"/>
<path d="M104 17.931H100.414V21.5172H104V17.931Z" fill="#F5F5F5"/>
<path d="M3.58621 21.5172H0V25.1034H3.58621V21.5172Z" fill="#F5F5F5"/>
<path d="M7.17241 21.5172H3.58621V25.1034H7.17241V21.5172Z" fill="#F5F5F5"/>
<path d="M10.7586 21.5172H7.17241V25.1034H10.7586V21.5172Z" fill="#F5F5F5"/>
<path d="M14.3448 21.5172H10.7586V25.1034H14.3448V21.5172Z" fill="#F5F5F5"/>
<path d="M17.931 21.5172H14.3448V25.1034H17.931V21.5172Z" fill="#F5F5F5"/>
<path d="M21.5172 21.5172H17.931V25.1034H21.5172V21.5172Z" fill="#F5F5F5"/>
<path d="M25.1034 21.5172H21.5172V25.1034H25.1034V21.5172Z" fill="#F5F5F5"/>
<path d="M32.2759 21.5172H28.6897V25.1034H32.2759V21.5172Z" fill="#F5F5F5"/>
<path d="M39.4483 21.5172H35.8621V25.1034H39.4483V21.5172Z" fill="#F5F5F5"/>
<path d="M46.6207 21.5172H43.0345V25.1034H46.6207V21.5172Z" fill="#F5F5F5"/>
<path d="M53.7931 21.5172H50.2069V25.1034H53.7931V21.5172Z" fill="#F5F5F5"/>
<path d="M60.9655 21.5172H57.3793V25.1034H60.9655V21.5172Z" fill="#F5F5F5"/>
<path d="M68.1379 21.5172H64.5517V25.1034H68.1379V21.5172Z" fill="#F5F5F5"/>
<path d="M75.3103 21.5172H71.7241V25.1034H75.3103V21.5172Z" fill="#F5F5F5"/>
<path d="M82.4828 21.5172H78.8966V25.1034H82.4828V21.5172Z" fill="#F5F5F5"/>
<path d="M86.069 21.5172H82.4828V25.1034H86.069V21.5172Z" fill="#F5F5F5"/>
<path d="M89.6552 21.5172H86.069V25.1034H89.6552V21.5172Z" fill="#F5F5F5"/>
<path d="M93.2414 21.5172H89.6552V25.1034H93.2414V21.5172Z" fill="#F5F5F5"/>
<path d="M96.8276 21.5172H93.2414V25.1034H96.8276V21.5172Z" fill="#F5F5F5"/>
<path d="M100.414 21.5172H96.8276V25.1034H100.414V21.5172Z" fill="#F5F5F5"/>
<path d="M104 21.5172H100.414V25.1034H104V21.5172Z" fill="#F5F5F5"/>
<path d="M39.4483 25.1034H35.8621V28.6897H39.4483V25.1034Z" fill="#F5F5F5"/>
<path d="M50.2069 25.1034H46.6207V28.6897H50.2069V25.1034Z" fill="#F5F5F5"/>
<path d="M53.7931 25.1034H50.2069V28.6897H53.7931V25.1034Z" fill="#F5F5F5"/>
<path d="M57.3793 25.1034H53.7931V28.6897H57.3793V25.1034Z" fill="#F5F5F5"/>
<path d="M60.9655 25.1034H57.3793V28.6897H60.9655V25.1034Z" fill="#F5F5F5"/>
<path d="M71.7241 25.1034H68.1379V28.6897H71.7241V25.1034Z" fill="#F5F5F5"/>
<path d="M7.17241 28.6897H3.58621V32.2759H7.17241V28.6897Z" fill="#F5F5F5"/>
<path d="M10.7586 28.6897H7.17241V32.2759H10.7586V28.6897Z" fill="#F5F5F5"/>
<path d="M14.3448 28.6897H10.7586V32.2759H14.3448V28.6897Z" fill="#F5F5F5"/>
<path d="M25.1034 28.6897H21.5172V32.2759H25.1034V28.6897Z" fill="#F5F5F5"/>
<path d="M28.6897 28.6897H25.1034V32.2759H28.6897V28.6897Z" fill="#F5F5F5"/>
<path d="M32.2759 28.6897H28.6897V32.2759H32.2759V28.6897Z" fill="#F5F5F5"/>
<path d="M39.4483 28.6897H35.8621V32.2759H39.4483V28.6897Z" fill="#F5F5F5"/>
<path d="M43.0345 28.6897H39.4483V32.2759H43.0345V28.6897Z" fill="#F5F5F5"/>
<path d="M46.6207 28.6897H43.0345V32.2759H46.6207V28.6897Z" fill="#F5F5F5"/>
<path d="M53.7931 28.6897H50.2069V32.2759H53.7931V28.6897Z" fill="#F5F5F5"/>
<path d="M57.3793 28.6897H53.7931V32.2759H57.3793V28.6897Z" fill="#F5F5F5"/>
<path d="M60.9655 28.6897H57.3793V32.2759H60.9655V28.6897Z" fill="#F5F5F5"/>
<path d="M64.5517 28.6897H60.9655V32.2759H64.5517V28.6897Z" fill="#F5F5F5"/>
<path d="M78.8966 28.6897H75.3103V32.2759H78.8966V28.6897Z" fill="#F5F5F5"/>
<path d="M104 28.6897H100.414V32.2759H104V28.6897Z" fill="#F5F5F5"/>
<path d="M3.58621 32.2759H0V35.8621H3.58621V32.2759Z" fill="#F5F5F5"/>
<path d="M7.17241 32.2759H3.58621V35.8621H7.17241V32.2759Z" fill="#F5F5F5"/>
<path d="M28.6897 32.2759H25.1034V35.8621H28.6897V32.2759Z" fill="#F5F5F5"/>
<path d="M35.8621 32.2759H32.2759V35.8621H35.8621V32.2759Z" fill="#F5F5F5"/>
<path d="M43.0345 32.2759H39.4483V35.8621H43.0345V32.2759Z" fill="#F5F5F5"/>
<path d="M46.6207 32.2759H43.0345V35.8621H46.6207V32.2759Z" fill="#F5F5F5"/>
<path d="M50.2069 32.2759H46.6207V35.8621H50.2069V32.2759Z" fill="#F5F5F5"/>
<path d="M60.9655 32.2759H57.3793V35.8621H60.9655V32.2759Z" fill="#F5F5F5"/>
<path d="M64.5517 32.2759H60.9655V35.8621H64.5517V32.2759Z" fill="#F5F5F5"/>
<path d="M71.7241 32.2759H68.1379V35.8621H71.7241V32.2759Z" fill="#F5F5F5"/>
<path d="M89.6552 32.2759H86.069V35.8621H89.6552V32.2759Z" fill="#F5F5F5"/>
<path d="M96.8276 32.2759H93.2414V35.8621H96.8276V32.2759Z" fill="#F5F5F5"/>
<path d="M100.414 32.2759H96.8276V35.8621H100.414V32.2759Z" fill="#F5F5F5"/>
<path d="M104 32.2759H100.414V35.8621H104V32.2759Z" fill="#F5F5F5"/>
<path d="M7.17241 35.8621H3.58621V39.4483H7.17241V35.8621Z" fill="#F5F5F5"/>
<path d="M14.3448 35.8621H10.7586V39.4483H14.3448V35.8621Z" fill="#F5F5F5"/>
<path d="M17.931 35.8621H14.3448V39.4483H17.931V35.8621Z" fill="#F5F5F5"/>
<path d="M25.1034 35.8621H21.5172V39.4483H25.1034V35.8621Z" fill="#F5F5F5"/>
<path d="M28.6897 35.8621H25.1034V39.4483H28.6897V35.8621Z" fill="#F5F5F5"/>
<path d="M35.8621 35.8621H32.2759V39.4483H35.8621V35.8621Z" fill="#F5F5F5"/>
<path d="M39.4483 35.8621H35.8621V39.4483H39.4483V35.8621Z" fill="#F5F5F5"/>
<path d="M46.6207 35.8621H43.0345V39.4483H46.6207V35.8621Z" fill="#F5F5F5"/>
<path d="M53.7931 35.8621H50.2069V39.4483H53.7931V35.8621Z" fill="#F5F5F5"/>
<path d="M75.3103 35.8621H71.7241V39.4483H75.3103V35.8621Z" fill="#F5F5F5"/>
<path d="M78.8966 35.8621H75.3103V39.4483H78.8966V35.8621Z" fill="#F5F5F5"/>
<path d="M93.2414 35.8621H89.6552V39.4483H93.2414V35.8621Z" fill="#F5F5F5"/>
<path d="M96.8276 35.8621H93.2414V39.4483H96.8276V35.8621Z" fill="#F5F5F5"/>
<path d="M100.414 35.8621H96.8276V39.4483H100.414V35.8621Z" fill="#F5F5F5"/>
<path d="M104 35.8621H100.414V39.4483H104V35.8621Z" fill="#F5F5F5"/>
<path d="M32.2759 39.4483H28.6897V43.0345H32.2759V39.4483Z" fill="#F5F5F5"/>
<path d="M35.8621 39.4483H32.2759V43.0345H35.8621V39.4483Z" fill="#F5F5F5"/>
<path d="M39.4483 39.4483H35.8621V43.0345H39.4483V39.4483Z" fill="#F5F5F5"/>
<path d="M43.0345 39.4483H39.4483V43.0345H43.0345V39.4483Z" fill="#F5F5F5"/>
<path d="M50.2069 39.4483H46.6207V43.0345H50.2069V39.4483Z" fill="#F5F5F5"/>
<path d="M57.3793 39.4483H53.7931V43.0345H57.3793V39.4483Z" fill="#F5F5F5"/>
<path d="M60.9655 39.4483H57.3793V43.0345H60.9655V39.4483Z" fill="#F5F5F5"/>
<path d="M68.1379 39.4483H64.5517V43.0345H68.1379V39.4483Z" fill="#F5F5F5"/>
<path d="M82.4828 39.4483H78.8966V43.0345H82.4828V39.4483Z" fill="#F5F5F5"/>
<path d="M86.069 39.4483H82.4828V43.0345H86.069V39.4483Z" fill="#F5F5F5"/>
<path d="M93.2414 39.4483H89.6552V43.0345H93.2414V39.4483Z" fill="#F5F5F5"/>
<path d="M104 39.4483H100.414V43.0345H104V39.4483Z" fill="#F5F5F5"/>
<path d="M3.58621 43.0345H0V46.6207H3.58621V43.0345Z" fill="#F5F5F5"/>
<path d="M17.931 43.0345H14.3448V46.6207H17.931V43.0345Z" fill="#F5F5F5"/>
<path d="M25.1034 43.0345H21.5172V46.6207H25.1034V43.0345Z" fill="#F5F5F5"/>
<path d="M28.6897 43.0345H25.1034V46.6207H28.6897V43.0345Z" fill="#F5F5F5"/>
<path d="M32.2759 43.0345H28.6897V46.6207H32.2759V43.0345Z" fill="#F5F5F5"/>
<path d="M39.4483 43.0345H35.8621V46.6207H39.4483V43.0345Z" fill="#F5F5F5"/>
<path d="M46.6207 43.0345H43.0345V46.6207H46.6207V43.0345Z" fill="#F5F5F5"/>
<path d="M50.2069 43.0345H46.6207V46.6207H50.2069V43.0345Z" fill="#F5F5F5"/>
<path d="M53.7931 43.0345H50.2069V46.6207H53.7931V43.0345Z" fill="#F5F5F5"/>
<path d="M64.5517 43.0345H60.9655V46.6207H64.5517V43.0345Z" fill="#F5F5F5"/>
<path d="M71.7241 43.0345H68.1379V46.6207H71.7241V43.0345Z" fill="#F5F5F5"/>
<path d="M89.6552 43.0345H86.069V46.6207H89.6552V43.0345Z" fill="#F5F5F5"/>
<path d="M96.8276 43.0345H93.2414V46.6207H96.8276V43.0345Z" fill="#F5F5F5"/>
<path d="M100.414 43.0345H96.8276V46.6207H100.414V43.0345Z" fill="#F5F5F5"/>
<path d="M7.17241 46.6207H3.58621V50.2069H7.17241V46.6207Z" fill="#F5F5F5"/>
<path d="M10.7586 46.6207H7.17241V50.2069H10.7586V46.6207Z" fill="#F5F5F5"/>
<path d="M35.8621 46.6207H32.2759V50.2069H35.8621V46.6207Z" fill="#F5F5F5"/>
<path d="M39.4483 46.6207H35.8621V50.2069H39.4483V46.6207Z" fill="#F5F5F5"/>
<path d="M43.0345 46.6207H39.4483V50.2069H43.0345V46.6207Z" fill="#F5F5F5"/>
<path d="M46.6207 46.6207H43.0345V50.2069H46.6207V46.6207Z" fill="#F5F5F5"/>
<path d="M64.5517 46.6207H60.9655V50.2069H64.5517V46.6207Z" fill="#F5F5F5"/>
<path d="M71.7241 46.6207H68.1379V50.2069H71.7241V46.6207Z" fill="#F5F5F5"/>
<path d="M89.6552 46.6207H86.069V50.2069H89.6552V46.6207Z" fill="#F5F5F5"/>
<path d="M93.2414 46.6207H89.6552V50.2069H93.2414V46.6207Z" fill="#F5F5F5"/>
<path d="M96.8276 46.6207H93.2414V50.2069H96.8276V46.6207Z" fill="#F5F5F5"/>
<path d="M100.414 46.6207H96.8276V50.2069H100.414V46.6207Z" fill="#F5F5F5"/>
<path d="M7.17241 50.2069H3.58621V53.7931H7.17241V50.2069Z" fill="#F5F5F5"/>
<path d="M25.1034 50.2069H21.5172V53.7931H25.1034V50.2069Z" fill="#F5F5F5"/>
<path d="M28.6897 50.2069H25.1034V53.7931H28.6897V50.2069Z" fill="#F5F5F5"/>
<path d="M39.4483 50.2069H35.8621V53.7931H39.4483V50.2069Z" fill="#F5F5F5"/>
<path d="M64.5517 50.2069H60.9655V53.7931H64.5517V50.2069Z" fill="#F5F5F5"/>
<path d="M75.3103 50.2069H71.7241V53.7931H75.3103V50.2069Z" fill="#F5F5F5"/>
<path d="M78.8966 50.2069H75.3103V53.7931H78.8966V50.2069Z" fill="#F5F5F5"/>
<path d="M86.069 50.2069H82.4828V53.7931H86.069V50.2069Z" fill="#F5F5F5"/>
<path d="M89.6552 50.2069H86.069V53.7931H89.6552V50.2069Z" fill="#F5F5F5"/>
<path d="M93.2414 50.2069H89.6552V53.7931H93.2414V50.2069Z" fill="#F5F5F5"/>
<path d="M96.8276 50.2069H93.2414V53.7931H96.8276V50.2069Z" fill="#F5F5F5"/>
<path d="M100.414 50.2069H96.8276V53.7931H100.414V50.2069Z" fill="#F5F5F5"/>
<path d="M3.58621 53.7931H0V57.3793H3.58621V53.7931Z" fill="#F5F5F5"/>
<path d="M10.7586 53.7931H7.17241V57.3793H10.7586V53.7931Z" fill="#F5F5F5"/>
<path d="M17.931 53.7931H14.3448V57.3793H17.931V53.7931Z" fill="#F5F5F5"/>
<path d="M21.5172 53.7931H17.931V57.3793H21.5172V53.7931Z" fill="#F5F5F5"/>
<path d="M28.6897 53.7931H25.1034V57.3793H28.6897V53.7931Z" fill="#F5F5F5"/>
<path d="M39.4483 53.7931H35.8621V57.3793H39.4483V53.7931Z" fill="#F5F5F5"/>
<path d="M43.0345 53.7931H39.4483V57.3793H43.0345V53.7931Z" fill="#F5F5F5"/>
<path d="M46.6207 53.7931H43.0345V57.3793H46.6207V53.7931Z" fill="#F5F5F5"/>
<path d="M53.7931 53.7931H50.2069V57.3793H53.7931V53.7931Z" fill="#F5F5F5"/>
<path d="M60.9655 53.7931H57.3793V57.3793H60.9655V53.7931Z" fill="#F5F5F5"/>
<path d="M64.5517 53.7931H60.9655V57.3793H64.5517V53.7931Z" fill="#F5F5F5"/>
<path d="M68.1379 53.7931H64.5517V57.3793H68.1379V53.7931Z" fill="#F5F5F5"/>
<path d="M78.8966 53.7931H75.3103V57.3793H78.8966V53.7931Z" fill="#F5F5F5"/>
<path d="M82.4828 53.7931H78.8966V57.3793H82.4828V53.7931Z" fill="#F5F5F5"/>
<path d="M93.2414 53.7931H89.6552V57.3793H93.2414V53.7931Z" fill="#F5F5F5"/>
<path d="M96.8276 53.7931H93.2414V57.3793H96.8276V53.7931Z" fill="#F5F5F5"/>
<path d="M3.58621 57.3793H0V60.9655H3.58621V57.3793Z" fill="#F5F5F5"/>
<path d="M7.17241 57.3793H3.58621V60.9655H7.17241V57.3793Z" fill="#F5F5F5"/>
<path d="M14.3448 57.3793H10.7586V60.9655H14.3448V57.3793Z" fill="#F5F5F5"/>
<path d="M17.931 57.3793H14.3448V60.9655H17.931V57.3793Z" fill="#F5F5F5"/>
<path d="M25.1034 57.3793H21.5172V60.9655H25.1034V57.3793Z" fill="#F5F5F5"/>
<path d="M28.6897 57.3793H25.1034V60.9655H28.6897V57.3793Z" fill="#F5F5F5"/>
<path d="M35.8621 57.3793H32.2759V60.9655H35.8621V57.3793Z" fill="#F5F5F5"/>
<path d="M50.2069 57.3793H46.6207V60.9655H50.2069V57.3793Z" fill="#F5F5F5"/>
<path d="M53.7931 57.3793H50.2069V60.9655H53.7931V57.3793Z" fill="#F5F5F5"/>
<path d="M57.3793 57.3793H53.7931V60.9655H57.3793V57.3793Z" fill="#F5F5F5"/>
<path d="M60.9655 57.3793H57.3793V60.9655H60.9655V57.3793Z" fill="#F5F5F5"/>
<path d="M68.1379 57.3793H64.5517V60.9655H68.1379V57.3793Z" fill="#F5F5F5"/>
<path d="M89.6552 57.3793H86.069V60.9655H89.6552V57.3793Z" fill="#F5F5F5"/>
<path d="M93.2414 57.3793H89.6552V60.9655H93.2414V57.3793Z" fill="#F5F5F5"/>
<path d="M100.414 57.3793H96.8276V60.9655H100.414V57.3793Z" fill="#F5F5F5"/>
<path d="M104 57.3793H100.414V60.9655H104V57.3793Z" fill="#F5F5F5"/>
<path d="M3.58621 60.9655H0V64.5517H3.58621V60.9655Z" fill="#F5F5F5"/>
<path d="M7.17241 60.9655H3.58621V64.5517H7.17241V60.9655Z" fill="#F5F5F5"/>
<path d="M14.3448 60.9655H10.7586V64.5517H14.3448V60.9655Z" fill="#F5F5F5"/>
<path d="M21.5172 60.9655H17.931V64.5517H21.5172V60.9655Z" fill="#F5F5F5"/>
<path d="M32.2759 60.9655H28.6897V64.5517H32.2759V60.9655Z" fill="#F5F5F5"/>
<path d="M39.4483 60.9655H35.8621V64.5517H39.4483V60.9655Z" fill="#F5F5F5"/>
<path d="M46.6207 60.9655H43.0345V64.5517H46.6207V60.9655Z" fill="#F5F5F5"/>
<path d="M53.7931 60.9655H50.2069V64.5517H53.7931V60.9655Z" fill="#F5F5F5"/>
<path d="M75.3103 60.9655H71.7241V64.5517H75.3103V60.9655Z" fill="#F5F5F5"/>
<path d="M89.6552 60.9655H86.069V64.5517H89.6552V60.9655Z" fill="#F5F5F5"/>
<path d="M104 60.9655H100.414V64.5517H104V60.9655Z" fill="#F5F5F5"/>
<path d="M25.1034 64.5517H21.5172V68.1379H25.1034V64.5517Z" fill="#F5F5F5"/>
<path d="M35.8621 64.5517H32.2759V68.1379H35.8621V64.5517Z" fill="#F5F5F5"/>
<path d="M43.0345 64.5517H39.4483V68.1379H43.0345V64.5517Z" fill="#F5F5F5"/>
<path d="M50.2069 64.5517H46.6207V68.1379H50.2069V64.5517Z" fill="#F5F5F5"/>
<path d="M57.3793 64.5517H53.7931V68.1379H57.3793V64.5517Z" fill="#F5F5F5"/>
<path d="M71.7241 64.5517H68.1379V68.1379H71.7241V64.5517Z" fill="#F5F5F5"/>
<path d="M78.8966 64.5517H75.3103V68.1379H78.8966V64.5517Z" fill="#F5F5F5"/>
<path d="M86.069 64.5517H82.4828V68.1379H86.069V64.5517Z" fill="#F5F5F5"/>
<path d="M93.2414 64.5517H89.6552V68.1379H93.2414V64.5517Z" fill="#F5F5F5"/>
<path d="M100.414 64.5517H96.8276V68.1379H100.414V64.5517Z" fill="#F5F5F5"/>
<path d="M104 64.5517H100.414V68.1379H104V64.5517Z" fill="#F5F5F5"/>
<path d="M3.58621 68.1379H0V71.7241H3.58621V68.1379Z" fill="#F5F5F5"/>
<path d="M10.7586 68.1379H7.17241V71.7241H10.7586V68.1379Z" fill="#F5F5F5"/>
<path d="M14.3448 68.1379H10.7586V71.7241H14.3448V68.1379Z" fill="#F5F5F5"/>
<path d="M17.931 68.1379H14.3448V71.7241H17.931V68.1379Z" fill="#F5F5F5"/>
<path d="M28.6897 68.1379H25.1034V71.7241H28.6897V68.1379Z" fill="#F5F5F5"/>
<path d="M32.2759 68.1379H28.6897V71.7241H32.2759V68.1379Z" fill="#F5F5F5"/>
<path d="M50.2069 68.1379H46.6207V71.7241H50.2069V68.1379Z" fill="#F5F5F5"/>
<path d="M57.3793 68.1379H53.7931V71.7241H57.3793V68.1379Z" fill="#F5F5F5"/>
<path d="M60.9655 68.1379H57.3793V71.7241H60.9655V68.1379Z" fill="#F5F5F5"/>
<path d="M64.5517 68.1379H60.9655V71.7241H64.5517V68.1379Z" fill="#F5F5F5"/>
<path d="M68.1379 68.1379H64.5517V71.7241H68.1379V68.1379Z" fill="#F5F5F5"/>
<path d="M71.7241 68.1379H68.1379V71.7241H71.7241V68.1379Z" fill="#F5F5F5"/>
<path d="M78.8966 68.1379H75.3103V71.7241H78.8966V68.1379Z" fill="#F5F5F5"/>
<path d="M82.4828 68.1379H78.8966V71.7241H82.4828V68.1379Z" fill="#F5F5F5"/>
<path d="M89.6552 68.1379H86.069V71.7241H89.6552V68.1379Z" fill="#F5F5F5"/>
<path d="M96.8276 68.1379H93.2414V71.7241H96.8276V68.1379Z" fill="#F5F5F5"/>
<path d="M104 68.1379H100.414V71.7241H104V68.1379Z" fill="#F5F5F5"/>
<path d="M7.17241 71.7241H3.58621V75.3103H7.17241V71.7241Z" fill="#F5F5F5"/>
<path d="M14.3448 71.7241H10.7586V75.3103H14.3448V71.7241Z" fill="#F5F5F5"/>
<path d="M17.931 71.7241H14.3448V75.3103H17.931V71.7241Z" fill="#F5F5F5"/>
<path d="M25.1034 71.7241H21.5172V75.3103H25.1034V71.7241Z" fill="#F5F5F5"/>
<path d="M46.6207 71.7241H43.0345V75.3103H46.6207V71.7241Z" fill="#F5F5F5"/>
<path d="M50.2069 71.7241H46.6207V75.3103H50.2069V71.7241Z" fill="#F5F5F5"/>
<path d="M57.3793 71.7241H53.7931V75.3103H57.3793V71.7241Z" fill="#F5F5F5"/>
<path d="M64.5517 71.7241H60.9655V75.3103H64.5517V71.7241Z" fill="#F5F5F5"/>
<path d="M71.7241 71.7241H68.1379V75.3103H71.7241V71.7241Z" fill="#F5F5F5"/>
<path d="M75.3103 71.7241H71.7241V75.3103H75.3103V71.7241Z" fill="#F5F5F5"/>
<path d="M78.8966 71.7241H75.3103V75.3103H78.8966V71.7241Z" fill="#F5F5F5"/>
<path d="M82.4828 71.7241H78.8966V75.3103H82.4828V71.7241Z" fill="#F5F5F5"/>
<path d="M86.069 71.7241H82.4828V75.3103H86.069V71.7241Z" fill="#F5F5F5"/>
<path d="M89.6552 71.7241H86.069V75.3103H89.6552V71.7241Z" fill="#F5F5F5"/>
<path d="M93.2414 71.7241H89.6552V75.3103H93.2414V71.7241Z" fill="#F5F5F5"/>
<path d="M32.2759 75.3103H28.6897V78.8966H32.2759V75.3103Z" fill="#F5F5F5"/>
<path d="M35.8621 75.3103H32.2759V78.8966H35.8621V75.3103Z" fill="#F5F5F5"/>
<path d="M39.4483 75.3103H35.8621V78.8966H39.4483V75.3103Z" fill="#F5F5F5"/>
<path d="M50.2069 75.3103H46.6207V78.8966H50.2069V75.3103Z" fill="#F5F5F5"/>
<path d="M53.7931 75.3103H50.2069V78.8966H53.7931V75.3103Z" fill="#F5F5F5"/>
<path d="M64.5517 75.3103H60.9655V78.8966H64.5517V75.3103Z" fill="#F5F5F5"/>
<path d="M68.1379 75.3103H64.5517V78.8966H68.1379V75.3103Z" fill="#F5F5F5"/>
<path d="M75.3103 75.3103H71.7241V78.8966H75.3103V75.3103Z" fill="#F5F5F5"/>
<path d="M89.6552 75.3103H86.069V78.8966H89.6552V75.3103Z" fill="#F5F5F5"/>
<path d="M93.2414 75.3103H89.6552V78.8966H93.2414V75.3103Z" fill="#F5F5F5"/>
<path d="M3.58621 78.8966H0V82.4828H3.58621V78.8966Z" fill="#F5F5F5"/>
<path d="M7.17241 78.8966H3.58621V82.4828H7.17241V78.8966Z" fill="#F5F5F5"/>
<path d="M10.7586 78.8966H7.17241V82.4828H10.7586V78.8966Z" fill="#F5F5F5"/>
<path d="M14.3448 78.8966H10.7586V82.4828H14.3448V78.8966Z" fill="#F5F5F5"/>
<path d="M17.931 78.8966H14.3448V82.4828H17.931V78.8966Z" fill="#F5F5F5"/>
<path d="M21.5172 78.8966H17.931V82.4828H21.5172V78.8966Z" fill="#F5F5F5"/>
<path d="M25.1034 78.8966H21.5172V82.4828H25.1034V78.8966Z" fill="#F5F5F5"/>
<path d="M32.2759 78.8966H28.6897V82.4828H32.2759V78.8966Z" fill="#F5F5F5"/>
<path d="M46.6207 78.8966H43.0345V82.4828H46.6207V78.8966Z" fill="#F5F5F5"/>
<path d="M50.2069 78.8966H46.6207V82.4828H50.2069V78.8966Z" fill="#F5F5F5"/>
<path d="M75.3103 78.8966H71.7241V82.4828H75.3103V78.8966Z" fill="#F5F5F5"/>
<path d="M82.4828 78.8966H78.8966V82.4828H82.4828V78.8966Z" fill="#F5F5F5"/>
<path d="M89.6552 78.8966H86.069V82.4828H89.6552V78.8966Z" fill="#F5F5F5"/>
<path d="M100.414 78.8966H96.8276V82.4828H100.414V78.8966Z" fill="#F5F5F5"/>
<path d="M104 78.8966H100.414V82.4828H104V78.8966Z" fill="#F5F5F5"/>
<path d="M3.58621 82.4828H0V86.069H3.58621V82.4828Z" fill="#F5F5F5"/>
<path d="M25.1034 82.4828H21.5172V86.069H25.1034V82.4828Z" fill="#F5F5F5"/>
<path d="M35.8621 82.4828H32.2759V86.069H35.8621V82.4828Z" fill="#F5F5F5"/>
<path d="M43.0345 82.4828H39.4483V86.069H43.0345V82.4828Z" fill="#F5F5F5"/>
<path d="M50.2069 82.4828H46.6207V86.069H50.2069V82.4828Z" fill="#F5F5F5"/>
<path d="M57.3793 82.4828H53.7931V86.069H57.3793V82.4828Z" fill="#F5F5F5"/>
<path d="M60.9655 82.4828H57.3793V86.069H60.9655V82.4828Z" fill="#F5F5F5"/>
<path d="M64.5517 82.4828H60.9655V86.069H64.5517V82.4828Z" fill="#F5F5F5"/>
<path d="M75.3103 82.4828H71.7241V86.069H75.3103V82.4828Z" fill="#F5F5F5"/>
<path d="M89.6552 82.4828H86.069V86.069H89.6552V82.4828Z" fill="#F5F5F5"/>
<path d="M93.2414 82.4828H89.6552V86.069H93.2414V82.4828Z" fill="#F5F5F5"/>
<path d="M96.8276 82.4828H93.2414V86.069H96.8276V82.4828Z" fill="#F5F5F5"/>
<path d="M3.58621 86.069H0V89.6552H3.58621V86.069Z" fill="#F5F5F5"/>
<path d="M10.7586 86.069H7.17241V89.6552H10.7586V86.069Z" fill="#F5F5F5"/>
<path d="M14.3448 86.069H10.7586V89.6552H14.3448V86.069Z" fill="#F5F5F5"/>
<path d="M17.931 86.069H14.3448V89.6552H17.931V86.069Z" fill="#F5F5F5"/>
<path d="M25.1034 86.069H21.5172V89.6552H25.1034V86.069Z" fill="#F5F5F5"/>
<path d="M35.8621 86.069H32.2759V89.6552H35.8621V86.069Z" fill="#F5F5F5"/>
<path d="M43.0345 86.069H39.4483V89.6552H43.0345V86.069Z" fill="#F5F5F5"/>
<path d="M50.2069 86.069H46.6207V89.6552H50.2069V86.069Z" fill="#F5F5F5"/>
<path d="M57.3793 86.069H53.7931V89.6552H57.3793V86.069Z" fill="#F5F5F5"/>
<path d="M64.5517 86.069H60.9655V89.6552H64.5517V86.069Z" fill="#F5F5F5"/>
<path d="M71.7241 86.069H68.1379V89.6552H71.7241V86.069Z" fill="#F5F5F5"/>
<path d="M75.3103 86.069H71.7241V89.6552H75.3103V86.069Z" fill="#F5F5F5"/>
<path d="M78.8966 86.069H75.3103V89.6552H78.8966V86.069Z" fill="#F5F5F5"/>
<path d="M82.4828 86.069H78.8966V89.6552H82.4828V86.069Z" fill="#F5F5F5"/>
<path d="M86.069 86.069H82.4828V89.6552H86.069V86.069Z" fill="#F5F5F5"/>
<path d="M89.6552 86.069H86.069V89.6552H89.6552V86.069Z" fill="#F5F5F5"/>
<path d="M96.8276 86.069H93.2414V89.6552H96.8276V86.069Z" fill="#F5F5F5"/>
<path d="M3.58621 89.6552H0V93.2414H3.58621V89.6552Z" fill="#F5F5F5"/>
<path d="M10.7586 89.6552H7.17241V93.2414H10.7586V89.6552Z" fill="#F5F5F5"/>
<path d="M14.3448 89.6552H10.7586V93.2414H14.3448V89.6552Z" fill="#F5F5F5"/>
<path d="M17.931 89.6552H14.3448V93.2414H17.931V89.6552Z" fill="#F5F5F5"/>
<path d="M25.1034 89.6552H21.5172V93.2414H25.1034V89.6552Z" fill="#F5F5F5"/>
<path d="M32.2759 89.6552H28.6897V93.2414H32.2759V89.6552Z" fill="#F5F5F5"/>
<path d="M39.4483 89.6552H35.8621V93.2414H39.4483V89.6552Z" fill="#F5F5F5"/>
<path d="M43.0345 89.6552H39.4483V93.2414H43.0345V89.6552Z" fill="#F5F5F5"/>
<path d="M57.3793 89.6552H53.7931V93.2414H57.3793V89.6552Z" fill="#F5F5F5"/>
<path d="M60.9655 89.6552H57.3793V93.2414H60.9655V89.6552Z" fill="#F5F5F5"/>
<path d="M64.5517 89.6552H60.9655V93.2414H64.5517V89.6552Z" fill="#F5F5F5"/>
<path d="M68.1379 89.6552H64.5517V93.2414H68.1379V89.6552Z" fill="#F5F5F5"/>
<path d="M71.7241 89.6552H68.1379V93.2414H71.7241V89.6552Z" fill="#F5F5F5"/>
<path d="M78.8966 89.6552H75.3103V93.2414H78.8966V89.6552Z" fill="#F5F5F5"/>
<path d="M86.069 89.6552H82.4828V93.2414H86.069V89.6552Z" fill="#F5F5F5"/>
<path d="M89.6552 89.6552H86.069V93.2414H89.6552V89.6552Z" fill="#F5F5F5"/>
<path d="M100.414 89.6552H96.8276V93.2414H100.414V89.6552Z" fill="#F5F5F5"/>
<path d="M104 89.6552H100.414V93.2414H104V89.6552Z" fill="#F5F5F5"/>
<path d="M3.58621 93.2414H0V96.8276H3.58621V93.2414Z" fill="#F5F5F5"/>
<path d="M10.7586 93.2414H7.17241V96.8276H10.7586V93.2414Z" fill="#F5F5F5"/>
<path d="M14.3448 93.2414H10.7586V96.8276H14.3448V93.2414Z" fill="#F5F5F5"/>
<path d="M17.931 93.2414H14.3448V96.8276H17.931V93.2414Z" fill="#F5F5F5"/>
<path d="M25.1034 93.2414H21.5172V96.8276H25.1034V93.2414Z" fill="#F5F5F5"/>
<path d="M32.2759 93.2414H28.6897V96.8276H32.2759V93.2414Z" fill="#F5F5F5"/>
<path d="M35.8621 93.2414H32.2759V96.8276H35.8621V93.2414Z" fill="#F5F5F5"/>
<path d="M46.6207 93.2414H43.0345V96.8276H46.6207V93.2414Z" fill="#F5F5F5"/>
<path d="M53.7931 93.2414H50.2069V96.8276H53.7931V93.2414Z" fill="#F5F5F5"/>
<path d="M57.3793 93.2414H53.7931V96.8276H57.3793V93.2414Z" fill="#F5F5F5"/>
<path d="M68.1379 93.2414H64.5517V96.8276H68.1379V93.2414Z" fill="#F5F5F5"/>
<path d="M75.3103 93.2414H71.7241V96.8276H75.3103V93.2414Z" fill="#F5F5F5"/>
<path d="M82.4828 93.2414H78.8966V96.8276H82.4828V93.2414Z" fill="#F5F5F5"/>
<path d="M93.2414 93.2414H89.6552V96.8276H93.2414V93.2414Z" fill="#F5F5F5"/>
<path d="M96.8276 93.2414H93.2414V96.8276H96.8276V93.2414Z" fill="#F5F5F5"/>
<path d="M100.414 93.2414H96.8276V96.8276H100.414V93.2414Z" fill="#F5F5F5"/>
<path d="M3.58621 96.8276H0V100.414H3.58621V96.8276Z" fill="#F5F5F5"/>
<path d="M25.1034 96.8276H21.5172V100.414H25.1034V96.8276Z" fill="#F5F5F5"/>
<path d="M32.2759 96.8276H28.6897V100.414H32.2759V96.8276Z" fill="#F5F5F5"/>
<path d="M43.0345 96.8276H39.4483V100.414H43.0345V96.8276Z" fill="#F5F5F5"/>
<path d="M50.2069 96.8276H46.6207V100.414H50.2069V96.8276Z" fill="#F5F5F5"/>
<path d="M53.7931 96.8276H50.2069V100.414H53.7931V96.8276Z" fill="#F5F5F5"/>
<path d="M57.3793 96.8276H53.7931V100.414H57.3793V96.8276Z" fill="#F5F5F5"/>
<path d="M60.9655 96.8276H57.3793V100.414H60.9655V96.8276Z" fill="#F5F5F5"/>
<path d="M64.5517 96.8276H60.9655V100.414H64.5517V96.8276Z" fill="#F5F5F5"/>
<path d="M78.8966 96.8276H75.3103V100.414H78.8966V96.8276Z" fill="#F5F5F5"/>
<path d="M89.6552 96.8276H86.069V100.414H89.6552V96.8276Z" fill="#F5F5F5"/>
<path d="M96.8276 96.8276H93.2414V100.414H96.8276V96.8276Z" fill="#F5F5F5"/>
<path d="M3.58621 100.414H0V104H3.58621V100.414Z" fill="#F5F5F5"/>
<path d="M7.17241 100.414H3.58621V104H7.17241V100.414Z" fill="#F5F5F5"/>
<path d="M10.7586 100.414H7.17241V104H10.7586V100.414Z" fill="#F5F5F5"/>
<path d="M14.3448 100.414H10.7586V104H14.3448V100.414Z" fill="#F5F5F5"/>
<path d="M17.931 100.414H14.3448V104H17.931V100.414Z" fill="#F5F5F5"/>
<path d="M21.5172 100.414H17.931V104H21.5172V100.414Z" fill="#F5F5F5"/>
<path d="M25.1034 100.414H21.5172V104H25.1034V100.414Z" fill="#F5F5F5"/>
<path d="M46.6207 100.414H43.0345V104H46.6207V100.414Z" fill="#F5F5F5"/>
<path d="M50.2069 100.414H46.6207V104H50.2069V100.414Z" fill="#F5F5F5"/>
<path d="M57.3793 100.414H53.7931V104H57.3793V100.414Z" fill="#F5F5F5"/>
<path d="M60.9655 100.414H57.3793V104H60.9655V100.414Z" fill="#F5F5F5"/>
<path d="M68.1379 100.414H64.5517V104H68.1379V100.414Z" fill="#F5F5F5"/>
<path d="M78.8966 100.414H75.3103V104H78.8966V100.414Z" fill="#F5F5F5"/>
<path d="M86.069 100.414H82.4828V104H86.069V100.414Z" fill="#F5F5F5"/>
<path d="M89.6552 100.414H86.069V104H89.6552V100.414Z" fill="#F5F5F5"/>
<path d="M93.2414 100.414H89.6552V104H93.2414V100.414Z" fill="#F5F5F5"/>
<path d="M100.414 100.414H96.8276V104H100.414V100.414Z" fill="#F5F5F5"/>
</svg>
