<svg width="284" height="90" viewBox="0 0 284 90" fill="none" xmlns="http://www.w3.org/2000/svg">
<path d="M5.83083 78.3693C1.98577 81.5937 0 89.3943 0 89.3943H283.43V45.3578V0C283.43 0 276.372 8.26714 272.831 10.2983C266.989 13.6491 264.587 25.3225 261.839 32.3915L253.988 54.9272C253.988 54.9272 251.056 63.752 245.903 65.5674C238.15 68.2986 236.112 23.9627 228.078 25.3225C220.047 26.682 218.248 43.4855 211.983 52.5787C205.719 61.6719 187.399 59.8082 175.082 50.5085C162.765 41.2087 158.214 53.343 151.248 56.9329C146.773 59.2391 143.892 59.7105 138.993 60.2382C132.454 60.9425 128.612 60.3173 122.244 58.5057C113.611 56.0499 110.375 44.3842 101.809 47.1203C98.3354 48.2296 96.8103 50.1169 93.9379 52.5787C88.3074 57.4043 87.8343 63.4789 81.9089 67.8341C80.8964 68.5783 79.7002 69.2703 78.4433 69.8988C72.4968 72.8723 65.5474 70.1985 59.803 66.8513C56.0139 64.6434 51.0741 62.7303 45.2462 62.6271C40.9395 62.5508 37.3858 65.5949 35.532 69.483L33.455 73.8392C32.3517 76.1531 29.6696 77.2688 27.1794 76.6603C21.4293 75.2553 11.3619 73.731 5.83083 78.3693Z" fill="url(#paint0_linear_3761_27365)"/>
<defs>
<linearGradient id="paint0_linear_3761_27365" x1="154.491" y1="91.596" x2="153.998" y2="-304.724" gradientUnits="userSpaceOnUse">
<stop stop-color="#3D8C40" stop-opacity="0"/>
<stop offset="1" stop-color="#3D8C40"/>
</linearGradient>
</defs>
</svg>
