<svg width="285" height="81" viewBox="0 0 285 81" fill="none" xmlns="http://www.w3.org/2000/svg">
<path d="M0 79.6935C0 79.6935 3.55835 71.9163 7.40338 68.7016C12.9371 64.075 23.0116 65.5986 28.7603 66.9999C31.2468 67.606 33.9237 66.4928 35.0279 64.1838L37.099 59.853C38.9562 55.9695 42.51 52.9313 46.8141 53.0067C52.6497 53.1089 57.595 55.0203 61.3865 57.225C67.1222 60.5601 74.0553 63.2232 79.995 60.2666C81.2592 59.6373 82.4628 58.9441 83.4807 58.1982C89.406 53.8561 89.8791 47.7997 95.5095 42.9886C98.3819 40.5342 99.907 38.6526 103.38 37.5467C111.946 34.8188 115.182 46.4494 123.815 48.8978C130.183 50.704 134.025 51.3272 140.564 50.6251C145.463 50.099 148.345 49.629 152.819 47.3298C159.785 43.7507 164.336 31.6529 176.653 40.9246C188.97 50.1964 207.289 52.0545 213.554 42.9886C219.818 33.9228 221.618 17.1699 229.649 15.8145C237.682 14.4588 239.72 58.6612 247.473 55.9383C252.626 54.1283 255.558 45.3301 255.558 45.3301L263.409 22.8622C266.157 15.8145 267.774 4.61412 273.616 1.27336C277.157 -0.751668 284.5 9.18887 284.5 9.18887" stroke="#E53935" stroke-width="2"/>
</svg>
