<svg width="24" height="24" viewBox="0 0 24 24" fill="none" xmlns="http://www.w3.org/2000/svg">
<g clip-path="url(#clip0_6053_21482)">
<circle cx="12" cy="12" r="12" fill="white"/>
<path d="M10.4908 7.58375C10.3167 7.55887 10.3084 7.55058 10.3913 7.54229C10.5488 7.51742 10.9136 7.55058 11.1707 7.60862C11.7676 7.74957 12.3065 8.11437 12.8786 8.75279L13.0279 8.9269L13.2434 8.89373C14.1637 8.74449 15.1089 8.86057 15.8966 9.22538C16.1121 9.32487 16.4521 9.52385 16.4935 9.5736C16.5101 9.59018 16.535 9.69797 16.5516 9.80575C16.6096 10.1954 16.5847 10.4856 16.4604 10.7095C16.394 10.8338 16.394 10.867 16.4355 10.9748C16.4686 11.0577 16.5681 11.1157 16.6593 11.1157C16.8583 11.1157 17.0656 10.8007 17.1651 10.3613L17.2065 10.1871L17.2812 10.27C17.704 10.7426 18.0357 11.3976 18.0854 11.8619L18.102 11.9863L18.0274 11.8785C17.903 11.6878 17.7869 11.5635 17.6294 11.4557C17.3475 11.265 17.049 11.2069 16.2614 11.1655C15.5483 11.124 15.1421 11.066 14.7441 10.9333C14.0642 10.7095 13.716 10.4193 12.9118 9.34974C12.5553 8.87715 12.3314 8.62013 12.1075 8.40456C11.6184 7.93197 11.1292 7.68324 10.4908 7.58375Z" fill="#FFC107"/>
<path d="M16.6676 8.63669C16.6842 8.32163 16.7257 8.11436 16.8169 7.92366C16.85 7.84904 16.8832 7.78271 16.8915 7.78271C16.8998 7.78271 16.8832 7.84075 16.8583 7.90708C16.792 8.08948 16.7837 8.34651 16.8252 8.63669C16.8832 9.00979 16.9081 9.05954 17.306 9.4658C17.4884 9.65649 17.704 9.89694 17.7869 9.99643L17.9279 10.1788L17.7869 10.0462C17.6128 9.88035 17.2148 9.56529 17.1236 9.52384C17.0656 9.49067 17.0573 9.49067 17.0159 9.53213C16.9827 9.56529 16.9744 9.61504 16.9744 9.85548C16.9661 10.2286 16.9164 10.4607 16.792 10.7012C16.7257 10.8255 16.7174 10.8007 16.7754 10.6597C16.8169 10.5519 16.8252 10.5022 16.8252 10.1457C16.8252 9.42434 16.7422 9.25023 16.2365 8.96005C16.1121 8.88543 15.8966 8.77764 15.7722 8.7196C15.6395 8.66157 15.54 8.61182 15.5483 8.61182C15.5649 8.59524 16.0541 8.73619 16.2448 8.8191C16.535 8.93517 16.5847 8.94346 16.6179 8.93517C16.6428 8.9103 16.6593 8.84397 16.6676 8.63669Z" fill="white"/>
<path d="M10.8305 9.87197C10.4823 9.39109 10.2584 8.6449 10.3082 8.0894L10.3248 7.91528L10.4077 7.93187C10.5569 7.95674 10.8139 8.05623 10.9383 8.13085C11.2699 8.32984 11.4192 8.60344 11.5601 9.28331C11.6016 9.48229 11.6596 9.71444 11.6845 9.78906C11.7259 9.91343 11.8835 10.2036 12.0161 10.386C12.1073 10.5187 12.0493 10.585 11.842 10.5684C11.527 10.5353 11.1041 10.2451 10.8305 9.87197Z" fill="#FF007A"/>
<path d="M16.2445 13.4786C14.6028 12.8153 14.0225 12.2432 14.0225 11.2731C14.0225 11.1322 14.0308 11.0161 14.0308 11.0161C14.039 11.0161 14.0971 11.0659 14.1717 11.1239C14.5033 11.3892 14.8764 11.5053 15.9128 11.6545C16.5181 11.7457 16.8663 11.8121 17.1814 11.9198C18.1846 12.2515 18.8064 12.9313 18.9556 13.8517C18.9971 14.117 18.9722 14.6227 18.9059 14.888C18.8479 15.0953 18.682 15.4767 18.6406 15.485C18.6323 15.485 18.6157 15.4435 18.6157 15.3772C18.5991 15.029 18.425 14.6973 18.1348 14.4403C17.7866 14.1418 17.3389 13.918 16.2445 13.4786Z" fill="#FF007A"/>
<path d="M15.084 13.7521C15.0675 13.6278 15.026 13.4702 15.0011 13.4039L14.9597 13.2795L15.0343 13.3707C15.1421 13.4951 15.225 13.6443 15.2996 13.8516C15.3576 14.0092 15.3576 14.0589 15.3576 14.3159C15.3576 14.5647 15.3493 14.6227 15.2996 14.7636C15.2167 14.9875 15.1172 15.145 14.9514 15.3191C14.6529 15.6259 14.2632 15.7917 13.7077 15.8664C13.6082 15.8746 13.3263 15.8995 13.0776 15.9161C12.4558 15.9493 12.0412 16.0156 11.6681 16.1482C11.6184 16.1648 11.5686 16.1814 11.5603 16.1731C11.5438 16.1565 11.8008 16.0073 12.0081 15.9078C12.2982 15.7669 12.5967 15.6922 13.2517 15.5762C13.5751 15.5264 13.9067 15.4601 13.9896 15.4269C14.8104 15.1699 15.2167 14.5315 15.084 13.7521Z" fill="#FF007A"/>
<path d="M15.8386 15.087C15.623 14.6144 15.5733 14.1666 15.6894 13.7438C15.7059 13.7023 15.7225 13.6609 15.7391 13.6609C15.7557 13.6609 15.8054 13.6858 15.8552 13.7189C15.9547 13.7853 16.1619 13.9013 16.6926 14.1915C17.3642 14.5563 17.7455 14.8382 18.0109 15.1616C18.243 15.4435 18.384 15.7668 18.4503 16.1648C18.4917 16.3886 18.4669 16.9276 18.4088 17.1514C18.2264 17.8562 17.8119 18.42 17.2066 18.7433C17.1154 18.7931 17.0408 18.8262 17.0325 18.8262C17.0242 18.8262 17.0574 18.7433 17.1071 18.6438C17.3061 18.221 17.331 17.8147 17.1817 17.3587C17.0905 17.0768 16.8999 16.7369 16.5185 16.1648C16.0625 15.5015 15.9547 15.3274 15.8386 15.087Z" fill="#FF007A"/>
<path d="M9.66142 17.6242C10.275 17.1101 11.0294 16.7453 11.7259 16.6293C12.0244 16.5795 12.5218 16.5961 12.7954 16.6707C13.2349 16.7868 13.6328 17.0355 13.8401 17.3423C14.0391 17.6408 14.1303 17.8978 14.2215 18.4699C14.2547 18.6937 14.2961 18.9259 14.3044 18.9756C14.3707 19.2741 14.5034 19.5063 14.6692 19.6306C14.9262 19.8213 15.374 19.8296 15.8134 19.6638C15.888 19.6389 15.9543 19.614 15.9543 19.6223C15.9709 19.6389 15.7471 19.7882 15.5978 19.8628C15.3905 19.9706 15.2247 20.0037 15.0009 20.0037C14.6029 20.0037 14.263 19.7965 13.9893 19.3819C13.9313 19.299 13.8152 19.0585 13.7157 18.8347C13.4256 18.1631 13.2763 17.9641 12.9364 17.7403C12.6379 17.5496 12.2565 17.5081 11.9663 17.6491C11.5849 17.8315 11.4854 18.3206 11.7508 18.6191C11.8585 18.7435 12.0575 18.843 12.2234 18.8679C12.5301 18.9093 12.7954 18.6689 12.7954 18.3621C12.7954 18.1631 12.7208 18.047 12.5218 17.9558C12.2565 17.8398 11.9663 17.9724 11.9746 18.2294C11.9746 18.3372 12.0244 18.4036 12.1322 18.4533C12.1985 18.4865 12.1985 18.4865 12.1487 18.4782C11.9083 18.4284 11.8503 18.1299 12.041 17.9393C12.2731 17.7071 12.7623 17.8066 12.9281 18.1299C12.9944 18.2626 13.0027 18.5279 12.9447 18.6937C12.8037 19.0585 12.4058 19.2492 11.9995 19.1415C11.7259 19.0668 11.6098 18.9922 11.2782 18.6523C10.6978 18.0553 10.4739 17.9393 9.64483 17.8149L9.4873 17.79L9.66142 17.6242Z" fill="#FF007A"/>
<path fill-rule="evenodd" clip-rule="evenodd" d="M5.30033 4.28376C7.23215 6.63013 10.2086 10.2782 10.3579 10.4772C10.4822 10.643 10.4325 10.8005 10.2252 10.9166C10.1091 10.9829 9.86871 11.0493 9.75263 11.0493C9.61997 11.0493 9.46244 10.9829 9.35466 10.8752C9.28004 10.8005 8.95669 10.3279 8.22708 9.19207C7.67157 8.32151 7.19898 7.60019 7.19069 7.59189C7.15753 7.57531 7.15753 7.57531 8.16904 9.38276C8.80745 10.5186 9.01473 10.9249 9.01473 10.9746C9.01473 11.0824 8.98156 11.1405 8.8489 11.2897C8.62505 11.5384 8.52555 11.8203 8.45093 12.409C8.36802 13.064 8.14416 13.5283 7.50575 14.3159C7.13266 14.7802 7.07462 14.8632 6.98342 15.0538C6.86734 15.286 6.83418 15.4187 6.8176 15.7171C6.80101 16.0322 6.83418 16.2312 6.92538 16.5297C7.00829 16.795 7.09949 16.9691 7.32335 17.309C7.51404 17.6075 7.63012 17.8314 7.63012 17.9143C7.63012 17.9806 7.6467 17.9806 7.94518 17.9143C8.65821 17.7484 9.24688 17.4665 9.57023 17.1183C9.76921 16.9028 9.81896 16.7867 9.81896 16.4882C9.81896 16.2975 9.81067 16.2561 9.76092 16.14C9.67801 15.9576 9.52048 15.8083 9.18055 15.5762C8.73283 15.2694 8.54214 15.0207 8.49239 14.689C8.45093 14.4071 8.50068 14.2165 8.74941 13.6941C9.00643 13.1552 9.07276 12.9313 9.11422 12.3841C9.13909 12.0359 9.18055 11.895 9.28004 11.7872C9.38782 11.6711 9.47903 11.6296 9.73605 11.5965C10.1589 11.5384 10.4325 11.4307 10.6481 11.2234C10.8388 11.0493 10.9217 10.8752 10.93 10.6181L10.9383 10.4274L10.8305 10.3114C10.4408 9.86364 5.04331 3.92725 5.01844 3.92725C5.01014 3.92725 5.1428 4.08478 5.30033 4.28376ZM7.84569 16.0736C7.93689 15.9161 7.88714 15.7171 7.7379 15.6176C7.59695 15.5264 7.38139 15.5679 7.38139 15.6923C7.38139 15.7254 7.39797 15.7586 7.44772 15.7752C7.52234 15.8166 7.53063 15.8581 7.47259 15.9493C7.41455 16.0405 7.41455 16.1234 7.48917 16.1814C7.60525 16.2726 7.76278 16.2229 7.84569 16.0736Z" fill="#FF007A"/>
<path fill-rule="evenodd" clip-rule="evenodd" d="M11.2039 11.7126C11.0049 11.7707 10.8142 11.9863 10.7562 12.2018C10.723 12.3345 10.7396 12.5749 10.7976 12.6495C10.8888 12.7656 10.9717 12.7988 11.2039 12.7988C11.6599 12.7988 12.0496 12.5998 12.091 12.3594C12.1325 12.1604 11.9584 11.8868 11.7179 11.7624C11.5936 11.6961 11.3365 11.6712 11.2039 11.7126ZM11.7345 12.1272C11.8008 12.0277 11.776 11.9199 11.6516 11.8453C11.4277 11.7044 11.0878 11.8204 11.0878 12.036C11.0878 12.1438 11.2619 12.2599 11.4277 12.2599C11.5355 12.2599 11.6848 12.1935 11.7345 12.1272Z" fill="#FF007A"/>
</g>
<defs>
<clipPath id="clip0_6053_21482">
<rect width="24" height="24" fill="white"/>
</clipPath>
</defs>
</svg>
